<?xml version="1.0" encoding="UTF-8"?>
<!DOCTYPE svg PUBLIC "-//W3C//DTD SVG 1.1//EN" "http://www.w3.org/Graphics/SVG/1.1/DTD/svg11.dtd">
<!-- Creator: CorelDRAW 2017 -->
<svg xmlns="http://www.w3.org/2000/svg" xml:space="preserve" width="374.787mm" height="204.038mm" version="1.1" style="shape-rendering:geometricPrecision; text-rendering:geometricPrecision; image-rendering:optimizeQuality; fill-rule:evenodd; clip-rule:evenodd"
viewBox="0 0 37736 20544"
 xmlns:xlink="http://www.w3.org/1999/xlink">
 <defs>
  <style type="text/css">
   <![CDATA[
    .str0 {stroke:#1E2C69;stroke-width:20.1374}
    .str1 {stroke:#17275A;stroke-width:7.67234}
    .str3 {stroke:#1C44A8;stroke-width:7.67234}
    .str2 {stroke:#1E2C69;stroke-width:7.67234}
    .fil4 {fill:none}
    .fil0 {fill:#0C122C}
    .fil2 {fill:#17275A}
    .fil3 {fill:#1C44A8}
    .fil1 {fill:#1E2C69}
   ]]>
  </style>
   <clipPath id="id0">
    <path d="M0 0l37736 0 0 20544 -37736 0 0 -20544z"/>
   </clipPath>
 </defs>
 <g id="Camada_x0020_1">
  <metadata id="CorelCorpID_0Corel-Layer"/>
  <polygon class="fil0" points="0,0 37736,0 37736,20544 0,20544 "/>
  <g style="clip-path:url(#id0)">
   <g id="_1999908315072">
    <polygon id="1" class="fil1 str0" points="42254,22201 831,22201 831,20545 10110,18519 32829,14452 42209,14452 "/>
    <path class="fil2 str1" d="M-160 20373l-39 1670c512,-101 656,-444 2691,-641 1929,-183 4266,-114 5407,-1171 1129,-1034 1352,-2018 4213,-1862 2376,128 3977,384 5946,-572 1011,-494 564,-320 932,-535 236,-142 262,-59 512,-247 158,-124 223,-247 446,-316 -656,23 -2349,-261 -3071,-348 -3504,-430 -5106,-801 -8151,508l-735 357c-197,87 -315,151 -499,252 -315,183 -538,348 -814,558l-2061 1213c-932,636 -3124,1199 -4777,1135z"/>
    <path class="fil2 str1" d="M28649 14026c551,59 1194,64 1811,114 1719,142 4016,426 5683,394 1693,-37 3465,-325 4843,-847l1234 -494 -26 -1272c-591,-18 -1339,-124 -1969,-160 -2087,-128 -3937,-133 -5946,297 -577,124 -1024,261 -1536,430l-2599 1098c-328,151 -276,188 -538,320 -276,146 -499,151 -958,119z"/>
    <path class="fil1 str2" d="M-160 20373c1654,64 3846,-499 4777,-1135l2061 -1213c276,-210 499,-375 814,-558 184,-101 302,-165 499,-252l735 -357c3045,-1309 4646,-938 8151,-508 722,87 2415,371 3071,348l1509 -1057c328,-165 551,-307 840,-494 184,-128 617,-320 932,-439 1549,-586 3334,-728 5421,-682 459,32 682,27 958,-119 263,-133 210,-169 538,-320l2599 -1098c512,-169 958,-307 1536,-430 2008,-430 3859,-426 5946,-297 630,37 1378,142 1969,160l0 -4013 -4226 0c144,2412 -3071,3743 -6641,4182 -4423,549 -8636,-275 -12823,183 -4147,448 -6615,1785 -8531,3089 -1168,792 -2310,1364 -4213,1574 -1050,114 -5512,124 -5919,526l0 2910z"/>
    <path class="fil3 str3" d="M28649 14026c-2087,-46 -3872,96 -5421,682 -315,119 -748,311 -932,439 -289,188 -512,329 -840,494l-1509 1057c-223,69 -289,192 -446,316 -249,188 -276,105 -512,247 -367,215 79,41 -932,535 -1969,956 -3570,700 -5946,572 -2861,-156 -3084,828 -4213,1862 -1142,1057 -3478,988 -5407,1171 -2034,197 -2179,540 -2691,641 79,197 26,124 1129,119 7534,0 5854,654 9988,-1739 197,-82 236,-92 433,-188 4817,-2288 7087,1405 13886,-1776l3058 -1560c1194,-503 1641,-874 3583,-1249 3714,-723 5355,819 7626,883 1286,37 1719,-224 2691,-329l26 -3011 -1234 494c-1378,522 -3150,810 -4843,847 -1667,32 -3964,-252 -5683,-394 -617,-50 -1260,-55 -1811,-114z"/>
   </g>
  </g>
  <polygon class="fil4" points="0,0 37736,0 37736,20544 0,20544 "/>
 </g>
</svg>
