<?xml version="1.0" encoding="UTF-8"?>
<!DOCTYPE svg PUBLIC "-//W3C//DTD SVG 1.1//EN" "http://www.w3.org/Graphics/SVG/1.1/DTD/svg11.dtd">
<!-- Creator: CorelDRAW 2017 -->
<svg xmlns="http://www.w3.org/2000/svg" xml:space="preserve" width="145.406mm" height="272.861mm" version="1.1" style="shape-rendering:geometricPrecision; text-rendering:geometricPrecision; image-rendering:optimizeQuality; fill-rule:evenodd; clip-rule:evenodd"
viewBox="0 0 12508 23472"
 xmlns:xlink="http://www.w3.org/1999/xlink">
 <defs>
  <style type="text/css">
   <![CDATA[
    .str0 {stroke:#1E2C69;stroke-width:17.2047}
    .str1 {stroke:#17275A;stroke-width:6.555}
    .str3 {stroke:#1C44A8;stroke-width:6.555}
    .str2 {stroke:#1E2C69;stroke-width:6.555}
    .fil4 {fill:none}
    .fil0 {fill:#0C122C}
    .fil2 {fill:#17275A}
    .fil3 {fill:#1C44A8}
    .fil1 {fill:#1E2C69}
   ]]>
  </style>
   <clipPath id="id0">
    <path d="M0 0l12508 0 0 23472 -12508 0 0 -23472z"/>
   </clipPath>
 </defs>
 <g id="Camada_x0020_1">
  <metadata id="CorelCorpID_0Corel-Layer"/>
  <polygon class="fil0" points="0,0 12508,0 12508,23472 0,23472 "/>
  <g style="clip-path:url(#id0)">
   <g id="_1999778742400">
    <polygon id="1" class="fil1 str0" points="12695,23688 0,23688 0,22623 3173,21320 10943,18704 12695,18704 "/>
    <path class="fil2 str1" d="M-339 22513l-13 1074c175,-65 224,-285 920,-412 660,-118 1459,-74 1849,-753 386,-665 462,-1298 1441,-1198 812,82 1360,247 2033,-368 346,-318 193,-206 319,-344 81,-91 90,-38 175,-159 54,-79 76,-159 153,-203 -224,15 -803,-168 -1050,-224 -1198,-277 -1746,-515 -2787,327l-251 230c-67,56 -108,97 -171,162 -108,118 -184,224 -278,359l-705 780c-319,409 -1068,771 -1634,730z"/>
    <path class="fil2 str1" d="M9514 18430c189,38 408,41 619,74 588,91 1373,274 1944,253 579,-24 1185,-209 1656,-544l422 -318 -9 -818c-202,-12 -458,-79 -673,-103 -714,-82 -1347,-85 -2033,191 -198,79 -350,168 -525,277l-889 706c-112,97 -94,121 -184,206 -94,94 -171,97 -328,77z"/>
    <path class="fil1 str2" d="M-339 22513c566,41 1315,-321 1634,-730l705 -780c94,-135 171,-241 278,-359 63,-65 103,-106 171,-162l251 -230c1041,-842 1589,-603 2787,-327 247,56 826,238 1050,224l516 -680c112,-106 189,-197 287,-318 63,-82 211,-206 319,-283 530,-377 1140,-468 1854,-439 157,21 233,18 328,-77 90,-85 72,-109 184,-206l889 -706c175,-109 328,-197 525,-277 687,-277 1320,-274 2033,-191 215,24 471,91 673,103l0 -2581 -1445 0c49,1551 -1050,2407 -2271,2690 -1513,353 -2953,-177 -4385,118 -1418,288 -2262,1148 -2918,1987 -399,509 -790,877 -1441,1012 -359,74 -1885,79 -2024,338l0 1872z"/>
    <path class="fil3 str3" d="M9514 18430c-714,-29 -1324,62 -1854,439 -108,77 -256,200 -319,283 -99,121 -175,212 -287,318l-516 680c-76,44 -99,124 -153,203 -85,121 -94,68 -175,159 -126,138 27,26 -319,344 -673,615 -1221,450 -2033,368 -979,-100 -1055,533 -1441,1198 -391,680 -1189,636 -1849,753 -696,127 -745,347 -920,412 27,127 9,79 386,77 2576,0 2002,421 3416,-1118 67,-53 81,-59 148,-121 1647,-1472 2424,904 4749,-1142l1046 -1004c408,-324 561,-562 1225,-803 1270,-465 1831,527 2608,568 440,24 588,-144 920,-212l9 -1937 -422 318c-471,336 -1077,521 -1656,544 -570,21 -1356,-162 -1944,-253 -211,-32 -431,-35 -619,-74z"/>
   </g>
  </g>
  <polygon class="fil4" points="0,0 12508,0 12508,23472 0,23472 "/>
 </g>
</svg>
